<svg width="31" height="30" viewBox="0 0 31 30" fill="none" xmlns="http://www.w3.org/2000/svg">
<g clip-path="url(#clip0_1_22)">
<path d="M20.3557 20.75H19.3664L19.0157 20.4125C20.243 18.9875 20.9818 17.1375 20.9818 15.125C20.9818 10.6375 17.3377 7 12.842 7C8.34638 7 4.70227 10.6375 4.70227 15.125C4.70227 19.6125 8.34638 23.25 12.842 23.25C14.8582 23.25 16.7116 22.5125 18.1392 21.2875L18.4773 21.6375V22.625L24.7386 28.8625L26.6045 27L20.3557 20.75ZM12.842 20.75C9.72388 20.75 7.20682 18.2375 7.20682 15.125C7.20682 12.0125 9.72388 9.5 12.842 9.5C15.9602 9.5 18.4773 12.0125 18.4773 15.125C18.4773 18.2375 15.9602 20.75 12.842 20.75Z" fill="black"/>
</g>
<defs>
<clipPath id="clip0_1_22">
<rect width="30.0545" height="30" fill="white" transform="translate(0.945435)"/>
</clipPath>
</defs>
</svg>
